<svg xmlns="http://www.w3.org/2000/svg" viewBox="0 0 405.9 363.5">
  <path fill="#83FFFF" class="st0" d="M242.6,363.3c-26.8,2.7-53-20-78-29.2c-48-27.5-118.1-60-117.5-124.2c-11.3-28-38.7-49.1-46.9-80.1c-5.6-46.3,82.4-36.3,114.4-36.6c43.1-14.8,83.3-36.8,131.7-30.6c104.2-76.6,195.1-110.2,138.3,62.8c-2.3,25.5,24.5,46.5,20.8,74.8C390,279.6,304.9,322.3,242.6,363.3z M225.8,273.9c84.8,31.9,132.7-61.9,109.6-137.4C287.1,175.3,248.8,218.3,225.8,273.9z M97.4,208.7c-23.2,49.7,44.6,94.9,91.5,70.2C163.8,248.6,134.7,223.6,97.4,208.7z"/>
</svg>