<svg xmlns="http://www.w3.org/2000/svg" viewBox="0 0 405.93 363.53" width="50px" height="50px">
  <path
    fill="#83ffff"
    d="M.34 200.12c-3.64-28.35 23.13-49.33 20.84-74.84C-35.56-47.67 55.34-14.06 159.52 62.51c48.39-6.18 88.6 15.8 131.71 30.65 32.08.31 120.02-9.71 114.44 36.57-8.2 31-35.66 52.13-46.94 80.14.62 64.24-69.47 96.69-117.47 124.23-24.94 9.2-51.21 31.88-77.96 29.21C101.04 322.28 15.92 279.65.34 200.12Zm70.19-63.62c-23.12 75.54 24.81 169.31 109.62 137.4-23.03-55.58-61.37-98.64-109.62-137.4Zm146.5 142.36c46.95 24.67 114.71-20.5 91.54-70.18-37.31 14.91-66.45 39.92-91.54 70.18Z"
  />
</svg>